<svg version="1.1" id="Layer_1" xmlns="http://www.w3.org/2000/svg" xmlns:xlink="http://www.w3.org/1999/xlink" x="0px" y="0px"
	 width="100%" viewBox="0 0 245 62" enable-background="new 0 0 245 62" xml:space="preserve">
<path fill="#060706" opacity="1.000000" stroke="none" 
	d="
M246.000000,39.000000 
	C246.000000,46.984486 246.000000,54.968975 246.000000,63.000000 
	C178.979111,63.000000 111.958214,63.000000 44.174141,62.711876 
	C43.880939,61.980900 44.278790,61.395096 44.831501,61.116219 
	C56.908333,55.022636 63.797207,45.388958 63.298344,31.714884 
	C62.780033,17.507805 55.359375,7.806960 41.919319,2.823357 
	C41.451794,2.649997 41.299316,1.626994 41.000000,1.000000 
	C109.333351,1.000000 177.666702,1.000000 246.000000,1.000000 
	C246.000000,10.765402 246.000000,20.414043 245.745819,30.883633 
	C245.035065,31.299664 244.449905,30.974514 244.141632,30.477583 
	C240.766495,25.037287 237.035934,23.266079 231.847992,24.704567 
	C227.472534,25.917774 224.222443,30.065981 224.153320,34.525532 
	C224.085831,38.879314 227.351273,43.424858 231.498734,44.750481 
	C236.184341,46.248108 240.251068,44.562035 243.858109,39.792118 
	C244.244873,39.280659 245.270660,39.252407 246.000000,39.000000 
M112.909973,25.429468 
	C112.607910,25.300976 112.305855,25.172483 111.132584,24.829840 
	C109.876160,24.919115 108.619736,25.008390 107.478333,25.089495 
	C107.478333,31.859104 107.478333,38.263081 107.478333,44.592228 
	C109.427979,44.592228 111.019958,44.592228 113.410866,44.592228 
	C111.600220,37.149769 113.039459,31.107590 120.870285,28.003979 
	C122.973976,33.471634 125.237442,39.354538 127.208809,44.478268 
	C124.650284,46.119122 122.847862,47.275066 120.121849,49.023335 
	C125.265419,51.323715 129.258270,52.080418 131.212677,48.016922 
	C134.737259,40.688843 137.399948,32.946236 140.440811,25.331270 
	C135.776398,23.886642 133.823639,25.417721 133.021393,29.247255 
	C132.482407,31.820127 131.417343,34.282795 130.189423,38.000443 
	C128.827850,33.988102 127.772621,31.229836 126.967499,28.400404 
	C126.257675,25.905874 125.246086,24.239922 122.205727,24.773073 
	C119.102592,25.317234 115.952736,25.594976 112.909973,25.429468 
M150.504257,44.241531 
	C154.484802,46.146313 158.065659,45.245235 160.875610,42.153576 
	C164.105255,38.600128 164.557022,33.922718 162.351929,30.098177 
	C160.846909,27.487833 156.937698,24.253086 154.580109,24.594007 
	C150.574448,25.173252 146.652817,25.109671 142.561829,24.744991 
	C142.561829,33.643600 142.561829,42.040886 142.561829,50.504944 
	C144.528244,50.504944 146.220917,50.504944 148.094208,50.504944 
	C148.094208,48.157669 148.060303,46.168823 148.166489,44.187477 
	C148.173965,44.047623 149.214050,43.963104 150.504257,44.241531 
M86.793533,29.869162 
	C89.492508,23.177595 92.808998,22.223494 101.198242,25.817589 
	C102.131744,24.734932 103.092941,23.620159 104.048645,22.511761 
	C97.921318,16.518637 89.763687,16.539003 84.231606,22.467182 
	C79.056061,28.013296 79.306816,36.537262 84.796326,41.663795 
	C90.381767,46.879917 99.059364,46.443790 104.417450,40.472168 
	C103.344696,39.328369 102.254890,38.166389 101.210869,37.053234 
	C92.286827,42.176193 87.312340,39.916195 86.793533,29.869162 
M196.659790,42.179386 
	C196.168320,39.432026 195.000900,38.352375 192.140686,39.857864 
	C189.144211,41.435066 186.533676,41.022369 184.486923,36.837532 
	C189.477371,36.837532 193.817032,36.837532 198.118851,36.837532 
	C198.245697,28.725040 195.209076,24.610790 189.259140,24.211765 
	C183.916946,23.853498 179.364944,27.915157 178.867950,33.455894 
	C178.480469,37.775856 179.692856,41.464497 183.578033,43.679188 
	C187.866058,46.123512 192.150162,45.836700 196.659790,42.179386 
M167.069397,20.881519 
	C166.526062,22.237934 165.814880,23.555334 165.487900,24.962036 
	C165.177780,26.296160 164.995529,27.776991 165.251190,29.097651 
	C165.615829,30.981314 166.669968,32.737148 166.990295,34.622238 
	C167.347092,36.721802 166.907288,38.971199 167.356766,41.037354 
	C168.158096,44.720963 171.047668,45.261356 174.303833,44.977337 
	C177.491806,44.699276 178.061752,42.881302 177.281845,40.060390 
	C175.928268,39.881596 174.566544,39.701725 173.166718,39.516823 
	C173.166718,36.110229 173.166718,33.021442 173.166718,31.149946 
	C175.151382,29.401577 176.408249,28.294357 177.665115,27.187132 
	C176.323715,26.006578 174.982315,24.826025 173.031006,23.108688 
	C172.995850,22.748507 172.855316,21.308584 172.662247,19.330379 
	C170.715332,19.598339 168.996506,19.834906 167.069397,20.881519 
M213.126740,25.129707 
	C211.724411,25.323092 210.316833,25.485638 208.922134,25.723701 
	C208.286026,25.832281 207.595505,26.375576 207.067642,26.228054 
	C205.264572,25.724154 203.522781,25.001076 201.342545,24.211262 
	C201.342545,31.577204 201.342545,37.998119 201.342545,44.531452 
	C203.296295,44.531452 204.998459,44.531452 206.984772,44.531452 
	C206.984772,41.719700 206.516953,39.118225 207.121521,36.795929 
	C207.682037,34.642857 208.947556,31.817543 210.691696,31.025242 
	C213.434891,29.779125 213.307724,28.072124 213.126740,25.129707 
M221.246750,37.426949 
	C221.246750,33.344948 221.246750,29.262945 221.246750,25.084156 
	C219.191299,25.084156 217.635345,25.084156 215.986084,25.084156 
	C215.986084,31.695612 215.986084,38.053940 215.986084,44.550251 
	C217.801910,44.550251 219.337128,44.550251 221.246536,44.550251 
	C221.246536,42.313187 221.246536,40.357353 221.246750,37.426949 
M221.409988,18.084251 
	C219.596130,17.754665 217.782257,17.425081 215.617340,17.031708 
	C215.617340,19.299473 215.617340,20.815889 215.617340,22.529350 
	C218.762756,22.608318 222.304733,24.115770 221.409988,18.084251 
z"/>
<path fill="#F4BC0B" opacity="1.000000" stroke="none" 
	d="
M40.625000,1.000000 
	C41.299316,1.626994 41.451794,2.649997 41.919319,2.823357 
	C55.359375,7.806960 62.780033,17.507805 63.298344,31.714884 
	C63.797207,45.388958 56.908333,55.022636 44.831501,61.116219 
	C44.278790,61.395096 43.880939,61.980900 43.705482,62.711876 
	C36.312424,63.000000 28.624847,63.000000 20.794270,62.728699 
	C20.371273,62.070652 20.177208,61.507679 19.798641,61.323090 
	C11.619191,57.334736 5.622088,51.383541 2.650795,42.610210 
	C2.532375,42.260551 1.569445,42.196907 1.000000,42.000000 
	C1.000000,35.645603 1.000000,29.291204 1.265221,22.820694 
	C1.919998,22.444567 2.523607,22.270658 2.667891,21.911980 
	C6.549710,12.262144 13.276672,5.702443 23.307713,2.621170 
	C23.670261,2.509804 23.775072,1.559382 24.000000,1.000000 
	C28.024544,1.000000 32.049088,1.000000 36.615807,1.295782 
	C37.438652,1.394375 37.719326,1.197187 38.000000,0.999999 
	C38.750000,1.000000 39.500000,1.000000 40.625000,1.000000 
M24.243883,57.505444 
	C37.213676,60.574940 48.484722,56.385101 54.664402,46.197094 
	C62.495068,33.287216 57.824478,16.508671 44.382793,9.261628 
	C31.417393,2.271373 14.739065,7.864156 8.382214,21.333788 
	C1.771645,35.341022 8.480495,51.270134 24.243883,57.505444 
z"/>
<path fill="#F2F2F2" opacity="1.000000" stroke="none" 
	d="
M246.000000,38.555832 
	C245.270660,39.252407 244.244873,39.280659 243.858109,39.792118 
	C240.251068,44.562035 236.184341,46.248108 231.498734,44.750481 
	C227.351273,43.424858 224.085831,38.879314 224.153320,34.525532 
	C224.222443,30.065981 227.472534,25.917774 231.847992,24.704567 
	C237.035934,23.266079 240.766495,25.037287 244.141632,30.477583 
	C244.449905,30.974514 245.035065,31.299664 245.745819,31.352291 
	C246.000000,33.370556 246.000000,35.741116 246.000000,38.555832 
M237.845703,39.645672 
	C240.778152,37.039154 241.440979,33.737167 238.700684,31.088137 
	C237.426453,29.856358 233.719131,29.511696 232.318939,30.489418 
	C230.861694,31.506948 230.038574,34.751068 230.399857,36.758549 
	C231.005905,40.126213 234.024826,40.565769 237.845703,39.645672 
z"/>
<path fill="#070804" opacity="1.000000" stroke="none" 
	d="
M23.531263,1.000000 
	C23.775072,1.559382 23.670261,2.509804 23.307713,2.621170 
	C13.276672,5.702443 6.549710,12.262144 2.667891,21.911980 
	C2.523607,22.270658 1.919998,22.444567 1.265221,22.352291 
	C1.000000,15.070397 1.000000,8.140795 1.000000,1.000000 
	C8.352834,1.000000 15.707680,1.000000 23.531263,1.000000 
z"/>
<path fill="#080804" opacity="1.000000" stroke="none" 
	d="
M1.000000,42.468910 
	C1.569445,42.196907 2.532375,42.260551 2.650795,42.610210 
	C5.622088,51.383541 11.619191,57.334736 19.798641,61.323090 
	C20.177208,61.507679 20.371273,62.070652 20.325634,62.728699 
	C13.736866,63.000000 7.473732,63.000000 1.000000,63.000000 
	C1.000000,56.314072 1.000000,49.625950 1.000000,42.468910 
z"/>
<path fill="#060706" opacity="1.000000" stroke="none" 
	d="
M37.750000,0.999999 
	C37.719326,1.197187 37.438652,1.394375 37.078987,1.295782 
	C37.000000,1.000000 37.500000,1.000000 37.750000,0.999999 
z"/>
<path fill="#F2F2F2" opacity="1.000000" stroke="none" 
	d="
M112.823334,25.989355 
	C115.952736,25.594976 119.102592,25.317234 122.205727,24.773073 
	C125.246086,24.239922 126.257675,25.905874 126.967499,28.400404 
	C127.772621,31.229836 128.827850,33.988102 130.189423,38.000443 
	C131.417343,34.282795 132.482407,31.820127 133.021393,29.247255 
	C133.823639,25.417721 135.776398,23.886642 140.440811,25.331270 
	C137.399948,32.946236 134.737259,40.688843 131.212677,48.016922 
	C129.258270,52.080418 125.265419,51.323715 120.121849,49.023335 
	C122.847862,47.275066 124.650284,46.119122 127.208809,44.478268 
	C125.237442,39.354538 122.973976,33.471634 120.870285,28.003979 
	C113.039459,31.107590 111.600220,37.149769 113.410866,44.592228 
	C111.019958,44.592228 109.427979,44.592228 107.478333,44.592228 
	C107.478333,38.263081 107.478333,31.859104 107.478333,25.089495 
	C108.619736,25.008390 109.876160,24.919115 111.657043,25.132109 
	C112.341362,25.681923 112.555305,25.866917 112.823334,25.989355 
z"/>
<path fill="#F0F0F0" opacity="1.000000" stroke="none" 
	d="
M150.139114,44.047192 
	C149.214050,43.963104 148.173965,44.047623 148.166489,44.187477 
	C148.060303,46.168823 148.094208,48.157669 148.094208,50.504944 
	C146.220917,50.504944 144.528244,50.504944 142.561829,50.504944 
	C142.561829,42.040886 142.561829,33.643600 142.561829,24.744991 
	C146.652817,25.109671 150.574448,25.173252 154.580109,24.594007 
	C156.937698,24.253086 160.846909,27.487833 162.351929,30.098177 
	C164.557022,33.922718 164.105255,38.600128 160.875610,42.153576 
	C158.065659,45.245235 154.484802,46.146313 150.139114,44.047192 
M154.799622,29.544594 
	C151.630142,28.143682 149.113647,29.671246 148.588013,32.405716 
	C148.165741,34.602501 149.243744,37.458912 150.551895,39.427242 
	C151.048035,40.173771 155.304993,39.811340 155.670319,38.988098 
	C156.680420,36.711838 156.613083,33.931061 156.789124,31.337349 
	C156.818100,30.910223 155.924026,30.420456 154.799622,29.544594 
z"/>
<path fill="#F3F3F3" opacity="1.000000" stroke="none" 
	d="
M86.726730,30.285671 
	C87.312340,39.916195 92.286827,42.176193 101.210869,37.053234 
	C102.254890,38.166389 103.344696,39.328369 104.417450,40.472168 
	C99.059364,46.443790 90.381767,46.879917 84.796326,41.663795 
	C79.306816,36.537262 79.056061,28.013296 84.231606,22.467182 
	C89.763687,16.539003 97.921318,16.518637 104.048645,22.511761 
	C103.092941,23.620159 102.131744,24.734932 101.198242,25.817589 
	C92.808998,22.223494 89.492508,23.177595 86.726730,30.285671 
z"/>
<path fill="#F2F2F2" opacity="1.000000" stroke="none" 
	d="
M196.390350,42.456139 
	C192.150162,45.836700 187.866058,46.123512 183.578033,43.679188 
	C179.692856,41.464497 178.480469,37.775856 178.867950,33.455894 
	C179.364944,27.915157 183.916946,23.853498 189.259140,24.211765 
	C195.209076,24.610790 198.245697,28.725040 198.118851,36.837532 
	C193.817032,36.837532 189.477371,36.837532 184.486923,36.837532 
	C186.533676,41.022369 189.144211,41.435066 192.140686,39.857864 
	C195.000900,38.352375 196.168320,39.432026 196.390350,42.456139 
M185.745468,33.133057 
	C188.007156,33.133057 190.268845,33.133057 192.530533,33.133057 
	C192.723068,32.678253 192.915604,32.223454 193.108124,31.768650 
	C191.529373,30.805969 189.916458,29.063673 188.382828,29.130869 
	C187.187195,29.183254 186.090149,31.485920 185.745468,33.133057 
z"/>
<path fill="#EDEDED" opacity="1.000000" stroke="none" 
	d="
M167.173538,20.476498 
	C168.996506,19.834906 170.715332,19.598339 172.662247,19.330379 
	C172.855316,21.308584 172.995850,22.748507 173.031006,23.108688 
	C174.982315,24.826025 176.323715,26.006578 177.665115,27.187134 
	C176.408249,28.294357 175.151382,29.401577 173.166718,31.149946 
	C173.166718,33.021442 173.166718,36.110229 173.166718,39.516823 
	C174.566544,39.701725 175.928268,39.881596 177.281845,40.060390 
	C178.061752,42.881302 177.491806,44.699276 174.303833,44.977337 
	C171.047668,45.261356 168.158096,44.720963 167.356766,41.037354 
	C166.907288,38.971199 167.347092,36.721802 166.990295,34.622238 
	C166.669968,32.737148 165.615829,30.981314 165.251190,29.097651 
	C164.995529,27.776991 165.177780,26.296160 165.487900,24.962036 
	C165.814880,23.555334 166.526062,22.237934 167.173538,20.476498 
z"/>
<path fill="#F0F0F0" opacity="1.000000" stroke="none" 
	d="
M213.181335,25.530014 
	C213.307724,28.072124 213.434891,29.779125 210.691696,31.025242 
	C208.947556,31.817543 207.682037,34.642857 207.121521,36.795929 
	C206.516953,39.118225 206.984772,41.719700 206.984772,44.531452 
	C204.998459,44.531452 203.296295,44.531452 201.342545,44.531452 
	C201.342545,37.998119 201.342545,31.577204 201.342545,24.211262 
	C203.522781,25.001076 205.264572,25.724154 207.067642,26.228054 
	C207.595505,26.375576 208.286026,25.832281 208.922134,25.723701 
	C210.316833,25.485638 211.724411,25.323092 213.181335,25.530014 
z"/>
<path fill="#FCFCFC" opacity="1.000000" stroke="none" 
	d="
M221.246643,37.914234 
	C221.246536,40.357353 221.246536,42.313187 221.246536,44.550251 
	C219.337128,44.550251 217.801910,44.550251 215.986084,44.550251 
	C215.986084,38.053940 215.986084,31.695612 215.986084,25.084156 
	C217.635345,25.084156 219.191299,25.084156 221.246750,25.084156 
	C221.246750,29.262945 221.246750,33.344948 221.246643,37.914234 
z"/>
<path fill="#C3C4C4" opacity="1.000000" stroke="none" 
	d="
M221.537201,18.456810 
	C222.304733,24.115770 218.762756,22.608318 215.617340,22.529350 
	C215.617340,20.815889 215.617340,19.299473 215.617340,17.031708 
	C217.782257,17.425081 219.596130,17.754665 221.537201,18.456810 
z"/>
<path fill="#F0F1F0" opacity="1.000000" stroke="none" 
	d="
M112.866653,25.709412 
	C112.555305,25.866917 112.341362,25.681923 112.092651,25.239185 
	C112.305855,25.172483 112.607910,25.300976 112.866653,25.709412 
z"/>
<path fill="#1D1904" opacity="1.000000" stroke="none" 
	d="
M23.870018,57.362453 
	C8.480495,51.270134 1.771645,35.341022 8.382214,21.333788 
	C14.739065,7.864156 31.417393,2.271373 44.382793,9.261628 
	C57.824478,16.508671 62.495068,33.287216 54.664402,46.197094 
	C48.484722,56.385101 37.213676,60.574940 23.870018,57.362453 
M50.720570,17.886208 
	C42.339123,8.465096 30.547777,6.053571 20.704142,11.747350 
	C10.794044,17.479568 6.176789,28.873842 9.741876,39.570431 
	C12.773252,48.665684 19.041040,54.530914 28.652987,55.886635 
	C38.846962,57.324448 47.011169,53.424187 52.382454,44.644707 
	C57.799278,35.790791 56.994068,26.946939 50.720570,17.886208 
z"/>
<path fill="#0B0D0C" opacity="1.000000" stroke="none" 
	d="
M237.462906,39.801392 
	C234.024826,40.565769 231.005905,40.126213 230.399857,36.758549 
	C230.038574,34.751068 230.861694,31.506948 232.318939,30.489418 
	C233.719131,29.511696 237.426453,29.856358 238.700684,31.088137 
	C241.440979,33.737167 240.778152,37.039154 237.462906,39.801392 
z"/>
<path fill="#0F1110" opacity="1.000000" stroke="none" 
	d="
M155.128082,29.752117 
	C155.924026,30.420456 156.818100,30.910223 156.789124,31.337349 
	C156.613083,33.931061 156.680420,36.711838 155.670319,38.988098 
	C155.304993,39.811340 151.048035,40.173771 150.551895,39.427242 
	C149.243744,37.458912 148.165741,34.602501 148.588013,32.405716 
	C149.113647,29.671246 151.630142,28.143682 155.128082,29.752117 
z"/>
<path fill="#141615" opacity="1.000000" stroke="none" 
	d="
M185.347382,32.960815 
	C186.090149,31.485920 187.187195,29.183254 188.382828,29.130869 
	C189.916458,29.063673 191.529373,30.805969 193.108124,31.768650 
	C192.915604,32.223454 192.723068,32.678253 192.530533,33.133057 
	C190.268845,33.133057 188.007156,33.133057 185.347382,32.960815 
z"/>
<path fill="#FAC00C" opacity="1.000000" stroke="none" 
	d="
M50.930267,18.185120 
	C56.994068,26.946939 57.799278,35.790791 52.382454,44.644707 
	C47.011169,53.424187 38.846962,57.324448 28.652987,55.886635 
	C19.041040,54.530914 12.773252,48.665684 9.741876,39.570431 
	C6.176789,28.873842 10.794044,17.479568 20.704142,11.747350 
	C30.547777,6.053571 42.339123,8.465096 50.930267,18.185120 
M22.489096,39.911953 
	C28.552200,46.541370 37.543648,46.658451 42.781284,40.053162 
	C43.383766,39.293362 43.173115,37.888786 43.339470,36.783161 
	C42.399494,37.039028 41.388748,37.152893 40.533653,37.579079 
	C38.485775,38.599747 36.600437,40.364517 34.477932,40.682003 
	C32.851448,40.925289 30.689255,39.733826 29.311569,38.546604 
	C28.667046,37.991188 29.312920,35.938351 29.381645,34.391010 
	C28.723431,33.934601 27.768650,33.272552 26.388002,32.315208 
	C27.884075,31.487494 28.827265,30.965666 29.589237,30.544100 
	C29.187023,29.070444 28.096632,27.110291 28.605013,26.514612 
	C29.664827,25.272820 31.861513,23.781538 33.065460,24.143084 
	C35.384579,24.839510 37.316540,26.786383 39.455177,28.141945 
	C40.297657,28.675949 41.263588,29.015177 42.173306,29.443098 
	C42.484509,28.476128 43.112576,27.488787 43.051949,26.545721 
	C42.792385,22.508291 41.038372,20.731518 36.472092,20.362629 
	C31.340200,19.948050 26.976912,20.164291 23.159470,23.858194 
	C20.832226,26.110125 18.392721,28.246037 15.950232,30.482973 
	C16.793394,30.810547 18.422596,31.443506 20.650436,32.309036 
	C19.138062,33.457596 18.181799,34.183823 17.641727,34.593975 
	C19.338308,36.398262 20.703339,37.849953 22.489096,39.911953 
z"/>
<path fill="#302D25" opacity="1.000000" stroke="none" 
	d="
M22.278732,39.606796 
	C20.703339,37.849953 19.338308,36.398262 17.641727,34.593975 
	C18.181799,34.183823 19.138062,33.457596 20.650436,32.309036 
	C18.422596,31.443506 16.793394,30.810547 15.950232,30.482973 
	C18.392721,28.246037 20.832226,26.110125 23.159470,23.858194 
	C26.976912,20.164291 31.340200,19.948050 36.472092,20.362629 
	C41.038372,20.731518 42.792385,22.508291 43.051949,26.545721 
	C43.112576,27.488787 42.484509,28.476128 42.173306,29.443098 
	C41.263588,29.015177 40.297657,28.675949 39.455177,28.141945 
	C37.316540,26.786383 35.384579,24.839510 33.065460,24.143084 
	C31.861513,23.781538 29.664827,25.272820 28.605013,26.514612 
	C28.096632,27.110291 29.187023,29.070444 29.589237,30.544100 
	C28.827265,30.965666 27.884075,31.487494 26.388002,32.315208 
	C27.768650,33.272552 28.723431,33.934601 29.381645,34.391010 
	C29.312920,35.938351 28.667046,37.991188 29.311569,38.546604 
	C30.689255,39.733826 32.851448,40.925289 34.477932,40.682003 
	C36.600437,40.364517 38.485775,38.599747 40.533653,37.579079 
	C41.388748,37.152893 42.399494,37.039028 43.339470,36.783161 
	C43.173115,37.888786 43.383766,39.293362 42.781284,40.053162 
	C37.543648,46.658451 28.552200,46.541370 22.278732,39.606796 
z"/>
</svg>